<svg width="24" height="26" viewBox="0 0 24 26" fill="none" xmlns="http://www.w3.org/2000/svg">
<path d="M22.818 25V22.3328C22.818 21.6324 22.6769 20.9388 22.4027 20.2918C22.1286 19.6447 21.7268 19.0567 21.2203 18.5615C20.7137 18.0663 20.1124 17.6735 19.4506 17.4055C18.7887 17.1375 18.0794 16.9997 17.3631 16.9998H6.45413C5.00761 16.9998 3.62033 17.5616 2.59748 18.5618C1.57463 19.5619 1 20.9184 1 22.3328V24.9993" stroke="black" stroke-width="2" stroke-linecap="round" stroke-linejoin="round"/>
<path d="M17.3634 6.33304C17.3634 7.38779 17.0436 8.41885 16.4443 9.29585C15.845 10.1728 14.9932 10.8564 13.9967 11.2601C13.0001 11.6637 11.9035 11.7694 10.8455 11.5637C9.78755 11.3579 8.81571 10.8501 8.05291 10.1043C7.2901 9.35856 6.77059 8.40837 6.56006 7.3739C6.34953 6.33944 6.45744 5.26717 6.87014 4.29267C7.28283 3.31817 7.98179 2.48521 8.87862 1.89912C9.77546 1.31304 10.8299 1.00014 11.9086 1C12.6249 0.999907 13.3342 1.13778 13.996 1.40575C14.6578 1.67372 15.2592 2.06653 15.7657 2.56176C16.2722 3.05699 16.6741 3.64493 16.9482 4.29201C17.2223 4.93909 17.3634 5.63264 17.3634 6.33304V6.33304Z" stroke="black" stroke-width="2" stroke-linecap="round" stroke-linejoin="round"/>
</svg>
