<svg width="20" height="20" viewBox="0 0 20 20" fill="none" xmlns="http://www.w3.org/2000/svg">
<path d="M1.00391 8.76317C1.00391 10.2136 1.44377 11.6315 2.26788 12.8374C3.09199 14.0434 4.26333 14.9834 5.63378 15.5384C7.00423 16.0935 8.51223 16.2387 9.96708 15.9557C11.4219 15.6728 12.7583 14.9743 13.8072 13.9487C14.8561 12.9231 15.5704 11.6164 15.8598 10.1939C16.1492 8.77131 16.0007 7.29679 15.433 5.95677C14.8653 4.61675 13.904 3.47142 12.6707 2.6656C11.4373 1.85979 9.98727 1.42969 8.50391 1.42969C6.51478 1.42969 4.60713 2.20232 3.2006 3.57762C1.79408 4.95291 1.00391 6.81821 1.00391 8.76317V8.76317Z" stroke="#171717" stroke-width="2" stroke-linecap="round" stroke-linejoin="round"/>
<path d="M18.0039 18.0518L14.0039 14.1406" stroke="#171717" stroke-width="2" stroke-linecap="round" stroke-linejoin="round"/>
</svg>
